<svg width="465" height="425" viewBox="0 0 465 425" fill="none" xmlns="http://www.w3.org/2000/svg">
<path d="M247.031 221.496L411.719 161.287V261.391C401.932 255.664 390.296 252.344 377.812 252.344C343.036 252.344 314.844 278.111 314.844 309.896C314.844 341.681 343.036 367.448 377.812 367.448C412.589 367.448 440.781 341.681 440.781 309.896V140.715C440.781 120.477 440.781 103.504 439.223 89.9815C439.003 88.0704 438.743 86.1703 438.456 84.3974C436.955 75.1588 434.302 66.5403 429.183 59.3433C426.624 55.7448 423.446 52.5018 419.49 49.7142C418.748 49.1916 417.977 48.685 417.181 48.195L417.02 48.0972C403.318 39.7623 387.913 40.3584 372.045 44.0543C356.698 47.6285 337.671 54.9073 314.34 63.833L273.769 79.3537C262.832 83.5368 253.566 87.0809 246.295 90.7517C238.557 94.6572 231.892 99.2637 226.893 106.128C221.896 112.992 219.819 120.39 218.866 128.422C217.969 135.97 217.969 145.15 217.969 155.985V296.808C208.18 291.081 196.546 287.76 184.062 287.76C149.286 287.76 121.094 313.528 121.094 345.312C121.094 377.097 149.286 402.865 184.062 402.865C218.839 402.865 247.031 377.097 247.031 345.312V221.496Z" fill="#FF6B6B"/>
<path opacity="0.5" d="M150.156 35.4167C150.156 28.0817 143.65 22.1354 135.625 22.1354C127.6 22.1354 121.094 28.0817 121.094 35.4167V137.433C111.306 131.706 99.6712 128.385 87.1875 128.385C52.4107 128.385 24.2188 154.152 24.2188 185.938C24.2188 217.722 52.4107 243.49 87.1875 243.49C121.964 243.49 150.156 217.722 150.156 185.938V88.6214C163.69 97.5575 179.791 101.823 193.75 101.823C201.775 101.823 208.281 95.8767 208.281 88.5417C208.281 81.2067 201.775 75.2604 193.75 75.2604C184.947 75.2604 173.722 72.1418 164.912 65.492C156.519 59.1567 150.156 49.5453 150.156 35.4167Z" fill="#FF6B6B"/>
</svg>
